HIERARCHY
ROOT Hips
{
  OFFSET -32.5998 29.0326 120.673
  CHANNELS 6 Xposition Yposition Zposition Zrotation Xrotation Yrotation
  JOINT LeftUpLeg
  {
    OFFSET 8.64259 1.95398 -2.38835
    CHANNELS 3 Zrotation Xrotation Yrotation
    JOINT LeftLeg
    {
      OFFSET 43.7702 0 0
      CHANNELS 3 Zrotation Xrotation Yrotation
      JOINT LeftFoot
      {
        OFFSET 40.6238 0 0
        CHANNELS 3 Zrotation Xrotation Yrotation
        JOINT LeftToeBase
        {
          OFFSET 12.7242 0 0
          CHANNELS 3 Zrotation Xrotation Yrotation
          End Site
          {
            OFFSET 0 0 0
          }
        }
      }
    }
  }
  JOINT RightUpLeg
  {
    OFFSET -8.2249 1.95398 -2.59336
    CHANNELS 3 Zrotation Xrotation Yrotation
    JOINT RightLeg
    {
      OFFSET 43.5653 0 0
      CHANNELS 3 Zrotation Xrotation Yrotation
      JOINT RightFoot
      {
        OFFSET 40.6238 0 0
        CHANNELS 3 Zrotation Xrotation Yrotation
        JOINT RightToeBase
        {
          OFFSET 12.7242 0 0
          CHANNELS 3 Zrotation Xrotation Yrotation
          End Site
          {
            OFFSET 0 0 0
          }
        }
      }
    }
  }
  JOINT Spine
  {
    OFFSET 0.165834 0.87714 6.61349
    CHANNELS 3 Zrotation Xrotation Yrotation
    JOINT Spine1
    {
      OFFSET 7.38963 1.71661e-005 0
      CHANNELS 3 Zrotation Xrotation Yrotation
      JOINT Spine2
      {
        OFFSET 11.9445 1.14441e-005 0
        CHANNELS 3 Zrotation Xrotation Yrotation
        JOINT Spine3
        {
          OFFSET 14.7254 4.19617e-005 0
          CHANNELS 3 Zrotation Xrotation Yrotation
          JOINT Spine4
          {
            OFFSET 10.9679 0 0
            CHANNELS 3 Zrotation Xrotation Yrotation
            JOINT RightShoulder
            {
              OFFSET 2.46616 -1.6653 3.69651
              CHANNELS 3 Zrotation Xrotation Yrotation
              JOINT RightArm
              {
                OFFSET 13.0012 0 0
                CHANNELS 3 Zrotation Xrotation Yrotation
                JOINT RightForeArm
                {
                  OFFSET 28.7848 1.62311e-005 0
                  CHANNELS 3 Zrotation Xrotation Yrotation
                  JOINT RightHand
                  {
                    OFFSET 26.5688 1.62095e-005 0
                    CHANNELS 3 Zrotation Xrotation Yrotation
                    End Site
                    {
                      OFFSET 0 0 0
                    }
                  }
                }
              }
            }
            JOINT LeftShoulder
            {
              OFFSET 2.38034 -1.29275 -3.7523
              CHANNELS 3 Zrotation Xrotation Yrotation
              JOINT LeftArm
              {
                OFFSET 16.3182 6.07031e-005 0
                CHANNELS 3 Zrotation Xrotation Yrotation
                JOINT LeftForeArm
                {
                  OFFSET 27.0901 0 0
                  CHANNELS 3 Zrotation Xrotation Yrotation
                  JOINT LeftHand
                  {
                    OFFSET 24.5451 1.51738e-005 0
                    CHANNELS 3 Zrotation Xrotation Yrotation
                    End Site
                    {
                      OFFSET 0 0 0
                    }
                  }
                }
              }
            }
            JOINT Neck
            {
              OFFSET 5.0226 -0.0266342 0
              CHANNELS 3 Zrotation Xrotation Yrotation
              JOINT Head
              {
                OFFSET 6.69364 2.86102e-005 0
                CHANNELS 3 Zrotation Xrotation Yrotation
                End Site
                {
                  OFFSET 0 0 0
                }
              }
            }
          }
        }
      }
    }
  }
}
MOTION
Frames:	10
Frame Time:	0.0416667
-240.713 68.2477 230.005 101.524 47.179 86.325 -143.747 70.2891 54.517 -7.38882 15.6311 -0.604974 20.3583 14.5348 -32.8813 148.912 -2.80921 -59.0123 -158.381 -54.6311 118.482 -8.47782 -7.34839 0.50662 121.876 -14.273 1.06114 20.8965 1.92917 5.16466 -0.764329 8.02138 -90.5175 10.8244 -1.76088 -0.865065 -0.845605 -1.79722 -0.786717 -23.3852 -1.41949 -1.35432 -3.37255 -1.4195 -1.35432 91.0596 -29.8809 -104.695 43.3127 -8.9713 1.34947 -25.5728 -27.5459 -36.1202 -32.3156 3.44036 -17.2634 -89.0436 -49.5171 80.0624 -14.6219 21.6122 -32.1976 7.63877 -3.68506 -6.84556 1.33332 0.00403162 -1.44798 3.04901 -1.14208 -8.20147 -7.17246 0.282572 -1.42362 
-235.581 69.2921 225.093 103.734 46.4222 85.5773 -151.699 69.9723 62.6528 -8.07803 21.4917 0.459821 20.03 10.1553 -31.1627 149.031 -3.62158 -59.8603 -156.263 -57.7378 120.731 -8.09324 -8.00411 0.254877 117.816 -15.4544 0.478661 19.7905 2.63814 4.40792 -0.588485 7.99855 -90.5854 10.8696 -1.44214 -1.02912 -0.80088 -1.48605 -0.964667 -23.3367 -1.06621 -1.41496 -3.32407 -1.0662 -1.41496 91.2791 -29.8085 -104.281 45.8769 -14.2429 2.20697 -9.13361 -10.8506 -14.1543 -9.86807 -0.830111 1.31366 -88.8688 -47.9656 80.0137 -19.552 28.0887 -24.7134 4.52545 -8.12069 0.628621 -1.9819 -0.0930028 -6.22444 2.35015 -1.24945 -8.50553 -8.01729 0.169689 -1.0103 
-230.156 70.1495 220.159 103.833 47.8402 85.5093 -157.35 68.353 66.7143 -4.42299 24.0414 0.282125 17.853 7.51895 -31.2587 149.244 -4.47255 -60.7298 -156.267 -59.245 122.075 -8.16566 -6.48256 0.417344 118.886 -16.0849 1.57257 22.0317 1.80105 4.08619 -0.397404 7.94163 -90.6411 10.9817 -1.08799 -1.17296 -0.689261 -1.13857 -1.12396 -23.222 -0.685222 -1.44569 -3.20934 -0.685217 -1.44569 91.3401 -29.2358 -104.36 45.0198 -14.2482 0.620854 -11.1497 -11.4568 -20.4336 -9.32191 0.0398385 -5.72137 -88.7684 -48.2041 80.2115 -24.6737 26.2765 -13.4596 5.86855 -4.45895 -2.62976 -2.47761 -0.0781807 -4.17324 2.29578 -2.10584 -7.49225 -6.75363 -0.86223 -0.914407 
-226.449 71.3489 216.699 105.006 47.8391 82.6415 -160.98 66.7838 69.2789 -3.09435 13.7972 0.170469 18.5451 15.6742 -34.284 150.078 -3.79226 -59.6846 -162.792 -62.643 115.49 -8.47184 -7.82126 0.440719 119.591 -16.2731 2.39401 23.6872 1.27018 3.52681 0.139552 8.04424 -90.3304 10.7902 0.125401 -0.66764 -0.880938 0.0958682 -0.672513 -23.415 0.320244 -0.599082 -3.40233 0.32025 -0.599092 91.0612 -30.3287 -104.536 41.7643 -13.9034 -3.20769 -12.8468 -12.8011 -23.4971 -12.9517 -0.426924 -1.45688 -87.7468 -45.4787 81.2633 -30.1964 19.9697 -5.41298 7.85041 -5.82016 -8.66012 -1.77597 -0.0898002 -4.55255 0.988797 -3.79971 -10.3269 -5.01917 -2.23991 0.687088 
-225.444 72.7177 215.422 103.729 46.1341 80.553 -163.047 68.1218 71.2465 -4.43461 -0.157644 0.146246 21.8505 20.7187 -37.6702 151.062 -2.32065 -57.7654 -177.561 -64.1535 99.1612 -8.34644 -11.6543 -0.381795 119.198 -16.339 2.76637 23.8449 1.24871 3.37668 0.597713 8.09755 -90.0615 10.6803 1.16198 -0.228344 -0.99012 1.15081 -0.279281 -23.5294 1.1769 0.131481 -3.51678 1.1769 0.131487 92.1302 -27.297 -103.418 40.0429 -15.1118 -9.69121 -17.1495 -20.3187 -26.1454 -8.47311 -0.0805482 -4.31748 -87.2299 -46.6614 82.2993 -30.0305 18.4896 -0.333633 7.90144 -7.47274 -13.7785 -2.03886 -0.0903384 -4.30572 1.74591 -4.30245 -6.78493 -5.92308 -3.17931 -1.10323 
-224.993 73.46 214.449 102.633 45.4093 79.5475 -165.442 70.4428 73.0513 -7.444 0.237412 -0.0228732 23.9419 10.8425 -35.5489 150.543 -1.60545 -57.1578 173.174 -64.2283 89.4903 -7.3795 -13.0647 -1.4095 117.985 -16.6098 2.07129 25.8249 0.53075 2.92781 0.800413 8.15338 -90.0356 10.5697 1.57774 -0.213059 -1.10032 1.56683 -0.282318 -23.6431 1.5688 0.271088 -3.63046 1.56882 0.271086 92.2551 -24.9321 -104.007 37.3547 -14.7783 -14.7095 -14.6642 -12.5987 -27.4208 -14.7651 -0.533041 -0.919068 -87.0619 -49.9108 83.1156 -28.0532 19.7135 2.48482 7.22643 -8.48423 -15.5769 -2.26234 -0.0894833 -4.62797 2.89098 -3.26892 0.72746 -6.03143 -3.25583 -4.60089 
-223.295 73.2478 212.281 102.528 44.7419 79.3688 -163.463 70.8163 71.5432 -8.46466 0.490008 -0.86203 24.7949 4.78077 -34.0209 149.81 -1.00183 -56.7264 165.893 -64.8209 81.9343 -7.13732 -14.9276 -1.45144 117.093 -18.2286 2.02161 28.46 -0.278652 1.69633 0.969435 8.2275 -90.1822 10.4234 1.84776 -0.524036 -1.24635 1.82291 -0.604886 -23.792 1.9198 0.0557168 -3.77933 1.9198 0.0557226 91.3524 -25.2836 -105.812 33.0948 -13.8463 -17.3081 -16.6535 -12.2707 -31.361 -13.4804 -0.411211 -1.88457 -86.8767 -52.4594 83.8045 -28.5389 18.8791 3.78166 7.33194 -8.60347 -15.1016 -1.95099 -0.0896334 -4.12036 3.57849 -2.7323 4.35808 -5.40718 -3.3563 -4.31374 
-219.924 73.2522 208.915 102.343 42.8029 78.8055 -162.541 70.5865 71.7502 -8.46232 2.69069 -1.26306 25.3164 3.29404 -32.1708 150.375 -1.68078 -57.2862 156.354 -64.776 71.3136 -8.24261 -15.9862 -2.49843 112.324 -15.9666 2.69214 32.8299 -2.41541 2.95345 1.18916 8.16068 -90.0433 10.5571 2.3487 -0.296232 -1.11176 2.33337 -0.399377 -23.6636 2.32909 0.423739 -3.65096 2.32908 0.423739 90.3275 -27.1061 -107.24 32.7945 -13.4596 -17.1995 -16.7629 -13.0743 -30.5372 -11.8322 -0.167583 -3.6408 -87.0846 -53.3753 83.6403 -30.4854 16.0495 5.5128 7.90794 -8.17994 -14.146 -3.24556 -0.0910754 -4.38819 2.33782 -2.75477 1.94968 -4.7388 -3.00673 -2.11386 
-216.216 74.5456 205.398 101.418 40.8887 77.4539 -156.713 69.6325 66.6731 -8.24172 4.08433 -1.09371 26.2816 3.96057 -31.4767 150.663 -2.38216 -57.9602 146.644 -62.1342 59.2147 -9.02615 -23.1054 -1.90959 91.8087 -9.45594 -2.60588 42.4899 -6.70989 6.93978 1.20978 7.96634 -89.6872 10.9388 2.55327 0.380481 -0.729622 2.56754 0.267654 -23.2817 2.32083 1.13064 -3.26904 2.32084 1.13063 90.1401 -27.3259 -107.536 37.8295 -15.071 -14.009 -13.256 -11.4608 -25.042 -13.0681 -0.205913 -3.45434 -86.5981 -53.002 84.2906 -31.9026 15.0213 5.64358 7.8482 -8.33295 -10.3304 -4.50369 -0.0956325 -4.09535 2.20988 -2.1602 0.978234 -6.67899 -2.19662 -3.23534 
-213.471 76.2746 203.161 102.655 40.0225 74.929 -151.611 66.8192 61.677 -8.12805 4.90533 -1.47731 27.4376 5.5018 -31.3391 150.644 -2.38991 -57.975 140.314 -61.9576 50.9725 -5.50608 -27.4547 -0.699374 69.7475 -1.02292 0.328458 23.3564 0.589814 6.21533 0.979839 8.07494 -89.3763 10.713 2.23867 1.03414 -0.956371 2.28202 0.934572 -23.4991 1.8244 1.65925 -3.48649 1.8244 1.65924 90.812 -27.8762 -105.936 41.6106 -17.6618 -10.4486 -11.9134 -11.3573 -23.2978 -12.5477 -0.278585 -2.7458 -87.4694 -50.4332 82.5971 -30.5626 18.6687 0.266739 7.07284 -9.7107 -4.10978 -4.32641 -0.0736102 -5.37186 2.39733 -2.03399 -2.044 -6.37932 -1.63388 -1.85148 
